<svg id="Layer_1" data-name="Layer 1" xmlns="http://www.w3.org/2000/svg" viewBox="0 0 404 88.8"><defs><style>.cls-1{fill:#e0e0e0;}</style></defs><path class="cls-1" d="M74.81,79H57.41a32,32,0,0,1-1.1-5.7c-3.8,5.3-9.71,7.5-18.11,7.5C14.7,80.75,8.8,61.64,8.8,46c0-21.8,10.9-37.5,34.5-37.5,23.11,0,30.91,11.5,31.61,23.4H49.71c-.61-3.3-1.5-6.2-6.31-6.2-5.2,0-7.7,5.2-7.7,19.4,0,12.1,2,18.4,7.7,18.4,5.2,0,6.51-4.2,6.51-8.6V54H43.4V38.84H74.81Z"/><path class="cls-1" d="M100.4,79V56.34a5.9,5.9,0,0,0-.7-3.4L78.5,10.34h28.7c2.6,9.2,5.4,18.2,7.4,26.4,2.8-9.3,5.7-19.4,7.7-26.4h26.51l-22,42.9a9.6,9.6,0,0,0-.6,3.2V79Z"/><path class="cls-1" d="M207.3,61.44c0-9.2.2-24.5.5-33.2h-.7c-1.8,15.2-4.1,35.7-6.2,50.71H181.7c-2-18.21-3.7-33.41-5.5-50.31h-.8c.4,8,.8,20.7.8,32.5V79H153.9V10.34h35.4c.7,7.5,2.3,25.5,2.9,34.3h.8c1.7-13.2,2.1-22.3,4-34.3h34.81V79H207.3Z"/><path class="cls-1" d="M298,61.44c0-9.2.2-24.5.5-33.2h-.7c-1.8,15.2-4.1,35.7-6.2,50.71H272.4c-2-18.21-3.7-33.41-5.5-50.31h-.8c.4,8,.8,20.7.8,32.5V79H244.6V10.34H280c.7,7.5,2.3,25.5,2.9,34.3h.8c1.7-13.2,2.1-22.3,4-34.3h34.8V79H298Z"/><path class="cls-1" d="M349.4,79V56.34a5.9,5.9,0,0,0-.7-3.4l-21.2-42.6h28.7c2.6,9.2,5.4,18.2,7.4,26.4,2.8-9.3,5.7-19.4,7.7-26.4h26.5l-22,42.9a9.6,9.6,0,0,0-.6,3.2V79Z"/></svg>