<svg id="Layer_1" data-name="Layer 1" xmlns="http://www.w3.org/2000/svg" viewBox="0 0 389 70.4"><defs><style>.cls-1{fill:#e0e0e0;}</style></defs><rect x="-87.8" y="-91.75" width="562" height="253"/><path class="cls-1" d="M66,70.4H48.6a32,32,0,0,1-1.1-5.7c-3.8,5.3-9.7,7.5-18.1,7.5C5.9,72.2,0,53.1,0,37.5,0,15.7,10.9,0,34.5,0,57.6,0,65.4,11.5,66.1,23.4H40.9c-.6-3.3-1.5-6.2-6.3-6.2-5.2,0-7.7,5.2-7.7,19.4,0,12.1,2,18.4,7.7,18.4,5.2,0,6.5-4.2,6.5-8.6v-.9H34.6V30.3H66Z"/><path class="cls-1" d="M91.6,70.4V47.8a5.9,5.9,0,0,0-.7-3.4L69.7,1.8H98.4c2.6,9.2,5.4,18.2,7.4,26.4,2.8-9.3,5.7-19.4,7.7-26.4H140L118,44.7a9.6,9.6,0,0,0-.6,3.2V70.4Z"/><path class="cls-1" d="M198.5,52.9c0-9.2.2-24.5.5-33.2h-.7c-1.8,15.2-4.1,35.7-6.2,50.7H172.9c-2-18.2-3.7-33.4-5.5-50.3h-.8c.4,8,.8,20.7.8,32.5V70.4H145.1V1.8h35.4c.7,7.5,2.3,25.5,2.9,34.3h.8c1.7-13.2,2.1-22.3,4-34.3H223V70.4H198.5Z"/><path class="cls-1" d="M289.2,52.9c0-9.2.2-24.5.5-33.2H289c-1.8,15.2-4.1,35.7-6.2,50.7H263.6c-2-18.2-3.7-33.4-5.5-50.3h-.8c.4,8,.8,20.7.8,32.5V70.4H235.8V1.8h35.4c.7,7.5,2.3,25.5,2.9,34.3h.8c1.7-13.2,2.1-22.3,4-34.3h34.8V70.4H289.2Z"/><path class="cls-1" d="M340.6,70.4V47.8a5.9,5.9,0,0,0-.7-3.4L318.7,1.8h28.7c2.6,9.2,5.4,18.2,7.4,26.4,2.8-9.3,5.7-19.4,7.7-26.4H389L367,44.7a9.6,9.6,0,0,0-.6,3.2V70.4Z"/></svg>